<svg width="600" height="200" viewBox="0 0 600 200" fill="none" xmlns="http://www.w3.org/2000/svg">
  <path d="M250 40 L250 160 L290 160 L290 110 L340 110 L340 80 L290 80 L290 70 L350 70 L350 40 L250 40 Z" fill="#C1F37B"/>
  <path d="M360 40 L360 160 L400 160 L400 40 L360 40 Z" fill="#C1F37B"/>
  <path d="M420 40 L420 160 L460 160 L460 120 L500 160 L550 160 L490 100 L550 40 L500 40 L460 80 L460 40 L420 40 Z" fill="#C1F37B"/>
  <path d="M560 40 L560 160 L600 160 L600 40 L560 40 Z" fill="#C1F37B"/>
  <path d="M170 90 Q200 60 230 90 Q200 120 170 90 Z" fill="#F863A6"/>
  <path d="M170 120 Q200 90 230 120 Q200 150 170 120 Z" fill="#F863A6"/>
</svg> 